HIERARCHY
ROOT Joint1
{
	OFFSET 0.000000 0.000000 0.000000
	CHANNELS 6 Xposition Yposition Zposition Xrotation Yrotation Zrotation
	JOINT Joint2
	{
		OFFSET -0.000000 0.000000 1.456275
		CHANNELS 6 Xposition Yposition Zposition Xrotation Yrotation Zrotation
		JOINT Joint3
		{
			OFFSET -0.000000 0.000002 1.471446
			CHANNELS 6 Xposition Yposition Zposition Xrotation Yrotation Zrotation
			JOINT Joint4
			{
				OFFSET 0.625745 0.000000 0.917755
				CHANNELS 6 Xposition Yposition Zposition Xrotation Yrotation Zrotation
				JOINT Joint5
				{
					OFFSET -0.629534 0.000001 0.940221
					CHANNELS 6 Xposition Yposition Zposition Xrotation Yrotation Zrotation
					JOINT Joint6
					{
						OFFSET -0.000001 0.113772 1.960660
						CHANNELS 6 Xposition Yposition Zposition Xrotation Yrotation Zrotation
						JOINT Joint7
						{
							OFFSET -0.669733 -0.113771 0.388340
							CHANNELS 6 Xposition Yposition Zposition Xrotation Yrotation Zrotation
							End Site
							{
								OFFSET 0.005509 0.005509 0.438980
							}
						}
					}
				}
			}
		}
	}
}
MOTION
Frames: 17
Frame Time: 0.041667
0.000000 0.000000 0.000000 -0.000000 1.019410 3.177450 -0.000000 0.000000 1.456275 -0.000000 16.146084 -0.000000 -0.000000 0.000002 1.471446 -0.000001 -1.133465 -42.955657 0.625745 0.000000 0.917755 0.000944 90.089150 -0.001312 -0.629534 0.000001 0.940221 0.000001 1.709736 -50.088690 -0.000001 0.113772 1.960661 -88.303882 154.933730 0.000002 -0.669733 -0.113771 0.388340 -1.456474 3.236263 182.526765 
0.000000 0.000000 0.000000 -0.000000 1.019410 3.280320 -0.000000 -0.000000 1.456275 0.000000 18.124529 -0.000000 -0.000000 0.000002 1.471446 -0.000001 -1.133461 -44.344788 0.625745 0.000000 0.917755 -0.000044 88.634921 0.000014 -0.629534 0.000001 0.940221 -0.000000 1.709734 -51.709535 -0.000001 0.113772 1.960660 -88.303882 157.036076 -0.000002 -0.669733 -0.113771 0.388340 -1.474662 3.215885 184.065620 
0.000000 0.000000 0.000000 -0.000000 1.019410 3.378554 -0.000000 -0.000000 1.456275 0.000000 20.013824 0.000000 -0.000000 0.000002 1.471446 -0.000002 -1.133463 -45.671323 0.625745 0.000001 0.917755 -0.000111 87.246227 -0.000011 -0.629533 0.000001 0.940221 -0.000001 1.709735 -53.257341 -0.000000 0.113772 1.960661 -88.303882 159.043714 -0.000004 -0.669733 -0.113771 0.388340 -1.491508 3.195983 185.535108 
0.000000 0.000000 0.000000 -0.000000 1.019410 3.473323 -0.000000 0.000000 1.456275 -0.000000 21.836502 -0.000000 -0.000000 0.000002 1.471446 -0.000002 -1.133468 -46.951072 0.625745 0.000000 0.917755 -0.000042 85.906493 0.000014 -0.629534 0.000001 0.940221 -0.000001 1.709737 -54.750578 -0.000000 0.113772 1.960660 -88.303882 160.980551 0.000000 -0.669733 -0.113771 0.388340 -1.507275 3.176372 186.952755 
0.000000 0.000000 0.000000 -0.000000 1.019410 3.569264 -0.000000 0.000000 1.456275 -0.000000 23.681712 -0.000000 -0.000000 0.000002 1.471446 -0.000002 -1.133464 -48.246646 0.625745 0.000001 0.917755 0.000009 84.550195 0.000024 -0.629534 0.000001 0.940221 -0.000002 1.709735 -56.262269 -0.000001 0.113771 1.960661 -88.303882 162.941334 -0.000000 -0.669733 -0.113771 0.388340 -1.522734 3.156134 188.387901 
0.000000 0.000000 0.000000 -0.000000 1.019410 3.666327 -0.000000 0.000000 1.456275 0.000000 25.548469 0.000000 -0.000000 0.000002 1.471446 -0.000002 -1.133464 -49.557360 0.625745 0.000000 0.917755 0.000029 83.178071 0.000012 -0.629534 0.000001 0.940221 -0.000001 1.709736 -57.791624 -0.000001 0.113772 1.960660 -88.303882 164.925013 0.000004 -0.669733 -0.113771 0.388340 -1.537852 3.135268 189.839753 
0.000000 0.000000 0.000000 -0.000000 1.019410 3.763337 -0.000000 -0.000000 1.456275 0.000000 27.414252 0.000000 -0.000001 0.000002 1.471446 -0.000002 -1.133466 -50.867373 0.625745 0.000001 0.917755 -0.000009 81.806644 0.000010 -0.629534 0.000001 0.940221 -0.000004 1.709736 -59.320179 -0.000001 0.113772 1.960661 -88.303882 166.907653 0.000000 -0.669733 -0.113771 0.388340 -1.552428 3.114043 191.290813 
0.000000 0.000000 0.000000 -0.000000 1.019410 3.859330 -0.000000 0.000000 1.456275 -0.000000 29.260442 -0.000000 -0.000000 0.000002 1.471446 -0.000002 -1.133464 -52.163640 0.625745 0.000001 0.917755 -0.000019 80.449629 -0.000002 -0.629534 0.000001 0.940221 -0.000004 1.709736 -60.832670 -0.000001 0.113772 1.960660 -88.303882 168.869488 -0.000001 -0.669733 -0.113771 0.388340 -1.566316 3.092680 192.726601 
0.000000 0.000000 0.000000 -0.000000 1.019410 3.954355 -0.000000 0.000000 1.456275 -0.000000 31.088029 -0.000000 -0.000000 0.000002 1.471446 -0.000002 -1.133463 -53.446842 0.625745 0.000001 0.917754 -0.000008 79.106281 0.000001 -0.629534 0.000001 0.940221 -0.000000 1.709736 -62.329923 -0.000001 0.113772 1.960661 -88.303882 170.811543 0.000002 -0.669734 -0.113771 0.388340 -1.579530 3.071198 194.147881 
0.000000 0.000000 0.000000 -0.000000 1.019410 4.052334 -0.000000 0.000000 1.456275 0.000000 32.972410 0.000000 -0.000000 0.000002 1.471446 -0.000002 -1.133465 -54.769924 0.625745 0.000000 0.917755 -0.000010 77.721201 0.000004 -0.629534 0.000001 0.940221 -0.000004 1.709733 -63.873709 -0.000001 0.113771 1.960661 -88.303882 172.813949 -0.000000 -0.669733 -0.113771 0.388340 -1.592592 3.048713 195.613326 
0.000000 0.000000 0.000000 -0.000000 1.019410 4.154233 -0.000000 0.000000 1.456275 -0.000000 34.932203 -0.000001 -0.000000 0.000002 1.471445 -0.000003 -1.133465 -56.145948 0.625745 0.000000 0.917755 -0.000004 76.280686 -0.000003 -0.629534 0.000001 0.940221 -0.000003 1.709737 -65.479275 -0.000001 0.113772 1.960660 -88.303882 174.896488 0.000000 -0.669733 -0.113771 0.388340 -1.605563 3.024983 197.137346 
0.000000 0.000000 0.000000 -0.000000 1.019410 4.245337 -0.000000 -0.000000 1.456275 0.000000 36.684386 0.000000 -0.000001 0.000002 1.471446 -0.000002 -1.133462 -57.376219 0.625745 0.000000 0.917755 -0.000010 74.992766 0.000000 -0.629534 0.000001 0.940221 -0.000004 1.709734 -66.914755 -0.000000 0.113772 1.960660 -88.303882 176.758425 -0.000008 -0.669733 -0.113770 0.388341 -1.616620 3.003481 198.499900 
0.000000 0.000000 0.000000 -0.000000 1.019410 4.313338 -0.000000 -0.000000 1.456275 -0.000000 37.992231 0.000001 -0.000001 0.000002 1.471446 -0.000003 -1.133468 -58.294490 0.625745 0.000000 0.917755 0.000000 74.031457 0.000000 -0.629534 0.000001 0.940221 -0.000002 1.709735 -67.986214 -0.000001 0.113772 1.960660 -88.303882 178.148190 -0.000001 -0.669733 -0.113771 0.388340 -1.624537 2.987265 199.516902 
0.000000 0.000000 0.000000 -0.000000 1.019410 4.371232 -0.000000 0.000000 1.456275 0.000000 39.105678 0.000000 -0.000001 0.000002 1.471446 -0.000003 -1.133470 -59.076273 0.625745 0.000000 0.917755 -0.000003 73.213030 0.000006 -0.629534 0.000001 0.940221 -0.000001 1.709736 -68.898413 -0.000001 0.113772 1.960661 -88.303882 179.331384 -0.000004 -0.669733 -0.113771 0.388340 -1.631049 2.973348 200.382724 
0.000000 0.000000 0.000000 -0.000000 1.019410 4.438341 -0.000000 0.000000 1.456275 -0.000000 40.396355 -0.000000 -0.000000 0.000002 1.471446 -0.000002 -1.133461 -59.982503 0.625745 0.000000 0.917755 -0.000007 72.264337 0.000009 -0.629534 0.000001 0.940221 0.000001 1.709736 -69.955808 -0.000001 0.113772 1.960660 -88.303882 180.702900 -0.000006 -0.669733 -0.113772 0.388340 -1.638333 2.957099 201.386325 
0.000000 0.000000 0.000000 -0.000000 1.019410 4.528217 -0.000000 0.000000 1.456275 -0.000000 42.124925 -0.000000 -0.000000 0.000002 1.471446 -0.000002 -1.133463 -61.196180 0.625745 0.000001 0.917755 -0.000012 70.993779 -0.000002 -0.629534 0.000001 0.940221 -0.000002 1.709737 -71.371946 -0.000001 0.113771 1.960660 -88.303875 182.539729 -0.000001 -0.669733 -0.113770 0.388340 -1.647642 2.935139 202.730424 
0.000000 0.000000 0.000000 -0.000000 1.019410 4.631344 -0.000000 0.000000 1.456275 0.000000 44.108327 0.000000 -0.000000 0.000002 1.471445 -0.000003 -1.133463 -62.588773 0.625745 0.000000 0.917755 0.000003 69.535909 0.000007 -0.629533 0.000001 0.940221 -0.000001 1.709733 -72.996841 -0.000001 0.113772 1.960660 -88.303875 184.647375 -0.000003 -0.669733 -0.113771 0.388340 -1.657679 2.909685 204.272626 
